<svg xmlns="http://www.w3.org/2000/svg" width="1024" height="1024" viewBox="0 0 1024 1024" version="1.1">
	<path d="M 540.453 81.969 C 517.616 91.105, 516.455 122.758, 538.560 133.573 C 543.404 135.943, 545.718 136.323, 560.241 137.131 C 712.251 145.585, 846.769 254.784, 885.388 401.077 C 892.260 427.109, 895.669 450.125, 896.915 478.900 C 897.816 499.693, 898.900 503.027, 907.176 510.468 C 921.035 522.929, 942.511 518.879, 950.668 502.267 C 953.438 496.626, 953.496 496.162, 953.324 481 C 952.981 450.875, 946.861 411.019, 937.660 379 C 895.028 230.636, 769.893 117.237, 615 86.600 C 584.279 80.524, 549.472 78.361, 540.453 81.969 M 541.165 196.908 C 525.728 202.239, 517.957 221.199, 525.298 235.623 C 530.836 246.505, 540.678 252, 554.630 252 C 581.115 252, 619.306 262.008, 649 276.730 C 728.611 316.200, 780.269 394.392, 784.883 482.410 C 785.537 494.869, 786.050 498.231, 787.829 501.694 C 796.627 518.821, 818.381 522.907, 832.326 510.053 C 840.129 502.861, 841.365 498.355, 840.705 479.506 C 836.286 353.402, 744.706 239.560, 620.238 205.447 C 586.953 196.325, 553.358 192.697, 541.165 196.908 M 234.365 205.493 C 226.726 207.155, 217.685 210.769, 210.221 215.145 C 203.752 218.939, 125.058 296.266, 114.948 308.765 C 103.587 322.809, 95.919 338.368, 91.174 357 C 87.456 371.599, 87.279 403.672, 90.813 422.500 C 96.187 451.135, 106.726 483.003, 120.742 513 C 129.260 531.229, 130.639 533.974, 138.568 548.500 C 224.992 706.809, 391.705 857.241, 553.048 922.503 C 633.485 955.040, 693.504 956.407, 738 926.717 C 746.434 921.089, 831.690 837.069, 839.676 826.515 C 859.419 800.423, 859.264 765.260, 839.295 739.843 C 831.196 729.534, 834.810 731.793, 739.500 677.466 C 687.359 647.745, 679.598 643.802, 669.665 641.989 C 657.142 639.703, 641.548 643.033, 630.536 650.345 C 627.674 652.245, 611.866 667.318, 595.407 683.840 C 559.569 719.815, 558.562 720.500, 541.476 720.500 C 528.305 720.500, 524.602 718.665, 499.133 699.523 C 436.757 652.641, 387.536 605.785, 340.810 548.806 C 325.102 529.650, 322.755 525.057, 322.182 512.336 C 321.420 495.427, 321.245 495.686, 359.962 456.500 C 386.370 429.773, 391.091 424.535, 394.211 418.500 C 402.898 401.697, 403.496 380.964, 395.740 365.500 C 394.085 362.200, 373.807 331.150, 350.678 296.500 C 301.744 223.193, 300.152 221.240, 282 212.239 C 266.159 204.384, 249.993 202.094, 234.365 205.493 M 215.001 260.069 C 208.766 262.691, 205 268.598, 205 275.757 C 205 281.313, 198.561 271.158, 263.804 368.500 C 310.783 438.592, 306.626 432.753, 311.210 435.100 C 323.306 441.294, 338.033 430.649, 335.565 417.495 C 334.980 414.374, 326.831 401.723, 298.532 360 C 292.376 350.925, 281.718 335.175, 274.846 325 C 238.646 271.399, 232.849 263.131, 230.288 261.452 C 227.034 259.319, 218.598 258.556, 215.001 260.069 M 542.994 310.865 C 526.094 316.474, 517.828 334.909, 525.334 350.251 C 530.958 361.746, 538.197 365.725, 555.784 366.991 C 615.966 371.322, 667.330 423.116, 671.974 484.152 C 673.094 498.857, 674.653 503.454, 680.471 509.190 C 691.584 520.148, 707.980 520.512, 719.326 510.053 C 728.425 501.667, 730.408 489.559, 726.571 465.833 C 715.488 397.301, 666.541 340.061, 600.273 318.134 C 582.337 312.200, 550.966 308.218, 542.994 310.865 M 300.420 623.886 C 284.563 633.555, 300.001 668.539, 335.129 702.538 C 375.934 742.034, 416 753.504, 416 725.692 C 416 685.426, 327.432 607.414, 300.420 623.886 M 624.914 707.925 C 612.770 711.751, 609.025 729.070, 618.609 737.081 C 620.763 738.881, 617.948 737.264, 692.500 779.536 C 723.300 797, 754.758 814.887, 762.408 819.285 C 778.510 828.543, 782.022 829.406, 788.992 825.815 C 799.072 820.621, 801.828 808.200, 794.762 799.816 C 792.822 797.513, 775.774 787.518, 717.250 754.372 C 711.063 750.867, 700.938 745.129, 694.750 741.620 C 631.687 705.858, 631.602 705.817, 624.914 707.925" stroke="none" fill="#EDEDED" fill-rule="evenodd"/>
</svg>